<svg width="200" height="48" viewBox="0 0 200 48" fill="none" xmlns="http://www.w3.org/2000/svg">
                                <path d="M43.8228 28.4529L46.5941 27.9911C46.8247 30.6472 49.2788 31.5134 51.3864 31.5134C53.5807 31.5134 56.0055 30.6472 56.0055 27.6733C56.0055 21.8994 44.2546 27.2981 44.2546 19.0695C44.2546 15.5185 47.1418 13.2377 51.2991 13.295C54.8214 13.353 57.5355 15.1721 57.9972 18.1746L55.3119 18.6657C55.052 16.4427 53.1756 15.5447 51.2991 15.5447C49.3068 15.5447 47.1418 16.4109 47.1418 19.0669C47.1418 24.2351 58.8921 18.865 58.8921 27.6707C58.8921 30.3268 57.4195 33.9357 51.3858 33.9357C45.6699 33.9389 44.0814 30.9936 43.8228 28.4529Z" fill="white"/>
                                <path d="M73.0965 25.6521V33.7935H70.2092V25.6521C70.2092 23.5445 69.7761 21.5234 67.957 21.5234C66.7156 21.5234 63.5398 21.7833 63.5398 28.3948V33.7935H60.6851V13.584H63.5436V22.9668C64.7271 20.2814 66.8347 19.1273 69.029 19.1273C73.0678 19.1273 73.0965 22.9381 73.0965 25.6521Z" fill="white"/>
                                <path d="M87.3876 24.9307V33.7944H84.4717V31.3103C82.1622 35.5256 74.5991 34.6307 74.5991 29.6931C74.5991 23.0243 84.4717 26.8352 84.4717 24.1211C84.4717 22.36 82.7972 21.6371 81.238 21.6371C79.7947 21.6371 78.1488 21.9556 77.773 24.2352L75.1749 23.7447C75.666 20.3377 78.4373 19.2409 81.238 19.2696C84.3271 19.3014 87.3876 20.6001 87.3876 24.9307ZM84.4717 27.5581V26.2574C82.6526 27.4676 77.6565 26.1708 77.6565 29.6931C77.6577 33.3326 84.4717 33.188 84.4717 27.5581Z" fill="white"/>
                                <path d="M96.9442 21.6682C93.6238 21.6682 92.0073 23.1115 92.0073 28.3949V33.7937H89.12V19.358H92.0054V22.0147C92.9296 19.9937 94.5168 19.1274 96.8843 19.1274H96.9423L96.9442 21.6682Z" fill="white"/>
                                <path d="M101.621 13.584V16.7884H98.6467V13.584H101.621ZM101.563 19.3579H98.7047V33.7935H101.563V19.3579Z" fill="white"/>
                                <path d="M123.88 25.6524V33.7938H120.993V25.6524C120.993 23.5454 120.56 21.5238 118.742 21.5238C117.298 21.5238 115.191 21.7836 115.191 28.3951V33.7938H112.303V25.6524C112.303 23.5454 111.87 21.5238 110.052 21.5238C108.608 21.5238 106.5 21.7836 106.5 28.3951V33.7938H103.642V19.3582H106.5V22.3607C107.482 20.1085 109.099 19.127 111.119 19.127C113.804 19.127 114.728 20.8301 115.046 22.7359C115.97 20.2244 117.673 19.127 119.81 19.127C123.852 19.1276 123.88 22.9384 123.88 25.6524Z" fill="white"/>
                                <path d="M134.924 33.7935H132.065V13.584H134.924V33.7935Z" fill="white"/>
                                <path d="M149.445 25.6523V33.7937H146.557V25.6523C146.557 23.5453 146.153 21.5236 144.334 21.5236C143.093 21.5236 140.061 21.7835 140.061 28.3949V33.7937H137.203V19.358H140.061V22.8516C141.216 20.2536 143.237 19.1274 145.402 19.1274C149.445 19.1274 149.445 22.9382 149.445 25.6523Z" fill="white"/>
                                <path d="M158.713 33.7935H156.202L150.803 19.3579H153.834L157.472 30.0693L161.081 19.3579H164.113L158.713 33.7935Z" fill="white"/>
                                <path d="M178.114 27.7311H166.968C167.343 30.4165 169.133 31.5999 171.183 31.5706C172.08 31.5897 172.961 31.3346 173.709 30.8394C174.457 30.3441 175.036 29.6324 175.369 28.7993L177.853 29.7808C176.698 32.5833 174.042 33.9381 171.184 33.9668C167.402 33.9961 164.169 31.5706 164.169 26.5783C164.169 21.5859 167.402 19.1585 171.184 19.1898C174.967 19.221 178.2 21.5859 178.2 26.5783C178.202 26.9642 178.173 27.3496 178.114 27.7311ZM166.968 25.3349H175.398C174.965 22.7076 173.204 21.6107 171.183 21.5814C169.162 21.5521 167.404 22.7076 166.97 25.3349H166.968Z" fill="white"/>
                                <path d="M179.443 29.896L182.186 29.3189C182.446 30.9068 183.89 31.6578 185.506 31.6578C187.181 31.6578 188.797 30.9068 188.797 29.1737C188.797 25.9406 179.703 29.6068 179.703 23.5438C179.703 19.3865 183.976 19.1553 185.506 19.1553C186.949 19.1553 190.645 19.3572 191.28 22.5623L188.682 23.3132C188.336 21.8119 187.123 21.2922 185.506 21.2922C183.861 21.2922 182.533 21.8699 182.533 23.5444C182.533 26.8935 191.627 23.0247 191.627 29.1744C191.627 33.5915 187.094 33.9667 185.506 33.9667C184.062 33.9667 179.905 33.6202 179.443 29.896Z" fill="white"/>
                                <path d="M197.632 30.0985C197.632 30.9648 198.094 31.1667 198.787 31.1667H199.997V33.7941H198.787C195.207 33.7941 194.774 32.9278 194.774 30.0998V21.4661H192.407V19.1852H194.774V16.4712L197.632 15.3164V19.1852H200V21.4661H197.632V30.0985Z" fill="white"/>
                                <path d="M17.0956 0L0.00585938 9.86684V13.7522L17.0956 3.88532L34.1758 13.7464V9.86111L17.0956 0Z" fill="url(#paint0_linear_214_116)"/>
                                <path d="M24.9184 13.5043L19.0955 10.1426V47.2915L24.9184 43.9297V13.5043Z" fill="url(#paint1_linear_214_116)"/>
                                <path d="M9.26233 43.9323L15.0852 47.294V10.1426L9.26233 13.5043V43.9323Z" fill="url(#paint2_linear_214_116)"/>
                                <path d="M5.25031 15.8203L0 18.8515V38.5852L5.25031 41.6164V15.8203Z" fill="url(#paint3_linear_214_116)"/>
                                <path d="M28.9298 15.8203V41.6164L34.1801 38.5852V18.8515L28.9298 15.8203Z" fill="url(#paint4_linear_214_116)"/>
                                <defs>
                                <linearGradient id="paint0_linear_214_116" x1="17.0908" y1="7.26114" x2="17.0908" y2="40.5689" gradientUnits="userSpaceOnUse">
                                <stop stop-color="#00F260"/>
                                <stop offset="0.233" stop-color="#00F263"/>
                                <stop offset="0.418" stop-color="#00F36D"/>
                                <stop offset="0.586" stop-color="#00F57D"/>
                                <stop offset="0.743" stop-color="#00F895"/>
                                <stop offset="0.893" stop-color="#00FBB3"/>
                                <stop offset="1" stop-color="#00FFCE"/>
                                </linearGradient>
                                <linearGradient id="paint1_linear_214_116" x1="19.0955" y1="7.24496" x2="29.3998" y2="8.69376" gradientUnits="userSpaceOnUse">
                                <stop stop-color="#00F260"/>
                                <stop offset="0.233" stop-color="#00F263"/>
                                <stop offset="0.418" stop-color="#00F36D"/>
                                <stop offset="0.586" stop-color="#00F57D"/>
                                <stop offset="0.743" stop-color="#00F895"/>
                                <stop offset="0.893" stop-color="#00FBB3"/>
                                <stop offset="1" stop-color="#00FFCE"/>
                                </linearGradient>
                                <linearGradient id="paint2_linear_214_116" x1="9.26233" y1="7.24477" x2="19.5667" y2="8.69347" gradientUnits="userSpaceOnUse">
                                <stop stop-color="#00F260"/>
                                <stop offset="0.233" stop-color="#00F263"/>
                                <stop offset="0.418" stop-color="#00F36D"/>
                                <stop offset="0.586" stop-color="#00F57D"/>
                                <stop offset="0.743" stop-color="#00F895"/>
                                <stop offset="0.893" stop-color="#00FBB3"/>
                                <stop offset="1" stop-color="#00FFCE"/>
                                </linearGradient>
                                <linearGradient id="paint3_linear_214_116" x1="-3.20028e-08" y1="7.25601" x2="13.0967" y2="10.6973" gradientUnits="userSpaceOnUse">
                                <stop stop-color="#00F260"/>
                                <stop offset="0.233" stop-color="#00F263"/>
                                <stop offset="0.418" stop-color="#00F36D"/>
                                <stop offset="0.586" stop-color="#00F57D"/>
                                <stop offset="0.743" stop-color="#00F895"/>
                                <stop offset="0.893" stop-color="#00FBB3"/>
                                <stop offset="1" stop-color="#00FFCE"/>
                                </linearGradient>
                                <linearGradient id="paint4_linear_214_116" x1="28.9298" y1="7.25601" x2="42.0265" y2="10.6973" gradientUnits="userSpaceOnUse">
                                <stop stop-color="#00F260"/>
                                <stop offset="0.233" stop-color="#00F263"/>
                                <stop offset="0.418" stop-color="#00F36D"/>
                                <stop offset="0.586" stop-color="#00F57D"/>
                                <stop offset="0.743" stop-color="#00F895"/>
                                <stop offset="0.893" stop-color="#00FBB3"/>
                                <stop offset="1" stop-color="#00FFCE"/>
                                </linearGradient>
                                </defs>
                            </svg>