<svg width="696" height="442" viewBox="0 0 696 442" fill="none" xmlns="http://www.w3.org/2000/svg">
<path d="M467.118 18.9444L576.48 44.3666C619.884 54.4562 641.513 59.4864 657.23 66.5097C671.147 72.7282 681.611 80.0323 687.988 87.9257C695.137 96.7761 695.16 106.639 695.16 126.836V177.991C695.16 198.189 695.137 208.051 687.988 216.902C681.611 224.795 671.147 232.099 657.23 238.318C641.513 245.341 619.884 250.371 576.48 260.461L467.118 285.883C423.612 295.997 401.904 301.042 378.822 303.016C358.39 304.765 337.27 304.765 316.838 303.016C293.756 301.042 272.048 295.997 228.542 285.883L119.18 260.461C75.776 250.371 54.1474 245.341 38.4297 238.318C24.5131 232.099 14.049 224.795 7.6724 216.902C0.522699 208.051 0.5 198.189 0.5 177.991V126.836C0.5 106.639 0.522699 96.7761 7.6724 87.9257C14.049 80.0323 24.5131 72.7282 38.4297 66.5097C54.1474 59.4864 75.776 54.4562 119.18 44.3666L228.542 18.9444C272.048 8.83095 293.756 3.7859 316.838 1.81111C337.27 0.0629635 358.39 0.0629635 378.822 1.81111C401.904 3.7859 423.612 8.83095 467.118 18.9444Z" stroke="white" stroke-opacity="0.25"/>
<path d="M467.117 85.4849L576.48 111.089C619.883 121.25 641.512 126.316 657.229 133.39C671.146 139.653 681.61 147.009 687.987 154.959C695.138 163.874 695.16 173.81 695.16 194.151V245.672C695.16 266.013 695.138 275.948 687.987 284.864C681.61 292.814 671.146 300.17 657.229 306.433C641.512 313.506 619.883 318.572 576.48 328.734L467.117 354.338C423.611 364.523 401.903 369.604 378.822 371.593C358.39 373.354 337.27 373.354 316.838 371.593C293.757 369.604 272.049 364.523 228.543 354.338L119.181 328.734C75.7766 318.572 54.1483 313.506 38.431 306.433C24.5146 300.17 14.0504 292.814 7.67349 284.864C0.522534 275.948 0.5 266.013 0.5 245.672V194.151C0.5 173.81 0.522534 163.874 7.67349 154.959C14.0504 147.009 24.5146 139.653 38.431 133.39C54.1483 126.316 75.7766 121.25 119.181 111.089L228.543 85.4849C272.049 75.2992 293.757 70.2181 316.838 68.2293C337.27 66.4687 358.39 66.4687 378.822 68.2293C401.903 70.2181 423.611 75.2992 467.117 85.4849Z" stroke="white" stroke-opacity="0.25"/>
<path d="M467.117 154.071L576.48 179.675C619.883 189.837 641.512 194.903 657.229 201.976C671.146 208.239 681.61 215.595 687.987 223.545C695.138 232.46 695.16 242.396 695.16 262.737V314.258C695.16 334.599 695.138 344.535 687.987 353.45C681.61 361.4 671.146 368.756 657.229 375.019C641.512 382.092 619.883 387.158 576.48 397.32L467.117 422.924C423.611 433.11 401.903 438.191 378.822 440.18C358.39 441.94 337.27 441.94 316.838 440.18C293.757 438.191 272.049 433.11 228.543 422.924L119.181 397.32C75.7766 387.158 54.1483 382.092 38.431 375.019C24.5146 368.756 14.0504 361.4 7.67349 353.45C0.522534 344.535 0.5 334.599 0.5 314.258V262.737C0.5 242.396 0.522534 232.46 7.67349 223.545C14.0504 215.595 24.5146 208.239 38.431 201.976C54.1483 194.903 75.7766 189.837 119.181 179.675L228.543 154.071C272.049 143.885 293.757 138.804 316.838 136.816C337.27 135.055 358.39 135.055 378.822 136.816C401.903 138.804 423.611 143.885 467.117 154.071Z" stroke="white" stroke-opacity="0.25"/>
</svg>
