<svg width="253" height="616" viewBox="0 0 253 616" fill="none" xmlns="http://www.w3.org/2000/svg">
<g filter="url(#filter0_bd_119_3943)">
<path d="M104.904 8.46572C112.771 3.92435 116.705 1.65367 120.887 0.764898C124.588 -0.021488 128.412 -0.021488 132.113 0.764898C136.295 1.65367 140.229 3.92435 148.096 8.46571L207.396 42.6946C215.267 47.2375 219.202 49.5089 222.064 52.687C224.596 55.499 226.509 58.8118 227.678 62.4107C229 66.4782 229 71.0218 229 80.1091V474.891C229 483.978 229 488.522 227.678 492.589C226.509 496.188 224.596 499.501 222.064 502.313C219.202 505.491 215.267 507.762 207.396 512.305L148.096 546.534C140.229 551.076 136.295 553.346 132.113 554.235C128.412 555.021 124.588 555.021 120.887 554.235C116.705 553.346 112.771 551.076 104.904 546.534L45.6038 512.305C37.7335 507.762 33.7983 505.491 30.9364 502.313C28.4041 499.501 26.4912 496.188 25.3217 492.589C24 488.522 24 483.978 24 474.891V80.1091C24 71.0218 24 66.4782 25.3217 62.4107C26.4912 58.8118 28.4041 55.499 30.9364 52.687C33.7983 49.5089 37.7335 47.2375 45.6038 42.6946L104.904 8.46572Z" fill="white" fill-opacity="0.09" shape-rendering="crispEdges"/>
<path d="M147.846 8.89875L207.146 43.1277C215.046 47.6874 218.896 49.9164 221.692 53.0216C224.177 55.7815 226.055 59.033 227.203 62.5652C228.494 66.5395 228.5 70.9881 228.5 80.1091V474.891C228.5 484.012 228.494 488.461 227.203 492.435C226.055 495.967 224.177 499.218 221.692 501.978C218.896 505.084 215.046 507.313 207.146 511.872L147.846 546.101C139.949 550.659 136.095 552.878 132.009 553.746C128.377 554.518 124.623 554.518 120.991 553.746C116.905 552.878 113.051 550.659 105.154 546.101L45.8537 511.872C37.9542 507.313 34.1043 505.084 31.3079 501.978C28.8225 499.218 26.9451 495.967 25.7972 492.435C24.5058 488.461 24.5 484.012 24.5 474.891V80.1091C24.5 70.9881 24.5058 66.5395 25.7972 62.5652C26.9451 59.033 28.8225 55.7815 31.3079 53.0216C34.1043 49.9164 37.9542 47.6874 45.8537 43.1277L105.154 8.89876C113.051 4.34053 116.905 2.12238 120.991 1.25398C124.623 0.482152 128.377 0.482152 132.009 1.25398C136.095 2.12238 139.949 4.34053 147.846 8.89875Z" stroke="#81858A" shape-rendering="crispEdges"/>
</g>
<defs>
<filter id="filter0_bd_119_3943" x="0" y="-9.82471" width="253" height="625.649" filterUnits="userSpaceOnUse" color-interpolation-filters="sRGB">
<feFlood flood-opacity="0" result="BackgroundImageFix"/>
<feGaussianBlur in="BackgroundImage" stdDeviation="5"/>
<feComposite in2="SourceAlpha" operator="in" result="effect1_backgroundBlur_119_3943"/>
<feColorMatrix in="SourceAlpha" type="matrix" values="0 0 0 0 0 0 0 0 0 0 0 0 0 0 0 0 0 0 127 0" result="hardAlpha"/>
<feOffset dy="37"/>
<feGaussianBlur stdDeviation="12"/>
<feComposite in2="hardAlpha" operator="out"/>
<feColorMatrix type="matrix" values="0 0 0 0 0.0862745 0 0 0 0 0.105882 0 0 0 0 0.137255 0 0 0 0.76 0"/>
<feBlend mode="normal" in2="effect1_backgroundBlur_119_3943" result="effect2_dropShadow_119_3943"/>
<feBlend mode="normal" in="SourceGraphic" in2="effect2_dropShadow_119_3943" result="shape"/>
</filter>
</defs>
</svg>
